<svg height="512pt" viewBox="0 0 512 512" width="512pt" xmlns="http://www.w3.org/2000/svg"><path d="m512 256c0 78.070312-28.570312 146.308594-80.441406 192.148438-5.921875 5.265624-16.03125 5.394531-22.386719-1.25h-306.332031c-6.066406 6.359374-15.773438 6.933593-22.390625 1.261718-51.878907-45.851562-80.449219-114.089844-80.449219-192.160156 0-141.160156 114.839844-256 256-256s256 114.839844 256 256zm0 0" fill="#e1ebf0"/><path d="m512 256c0 78.070312-28.570312 146.308594-80.441406 192.148438-5.921875 5.265624-16.03125 5.394531-22.386719-1.25h-153.171875v-446.898438c141.160156 0 256 114.839844 256 256zm0 0" fill="#b4d2d7"/><path d="m211 88.992188c-18.207031-10.179688-39.550781-9.828126-57.101562.921874-46.332032 28.464844-78.867188 75.296876-89.28125 128.496094-2.476563 12.6875.910156 25.78125 9.273437 35.933594 8.714844 10.59375 21.5625 16.65625 35.230469 16.65625 21.386718 0 39.550781-15.144531 44.164062-36.8125l72.714844-79.292969c8.289062 0 15-6.707031 15-15 0-21.046875-11.5-40.558593-30-50.902343zm0 0" fill="#8c4a37"/><path d="m447.382812 218.398438c-10.414062-53.1875-42.949218-100.019532-89.28125-128.484376-17.550781-10.75-38.863281-11.101562-57.101562-.921874-18.5 10.34375-30 29.855468-30 50.902343 0 8.292969 6.710938 15 15 15l72.714844 79.292969c4.613281 21.667969 22.777344 36.8125 44.164062 36.8125 13.667969 0 26.515625-6.0625 35.230469-16.65625 8.363281-10.152344 11.746094-23.246094 9.273437-35.945312zm0 0" fill="#663325"/><path d="m256 121c-74.398438 0-135 60.601562-135 135v90c0 57.898438 47.101562 105 105 105h60c57.898438 0 105-47.101562 105-105v-90c0-74.398438-60.601562-135-135-135zm0 0" fill="#fdbf00"/><path d="m391 256v90c0 57.898438-47.101562 105-105 105h-30v-330c74.398438 0 135 60.601562 135 135zm0 0" fill="#ff9100"/><path d="m271 376v60c0 8.402344-6.597656 15-15 15s-15-6.597656-15-15v-60c0-8.402344 6.597656-15 15-15s15 6.597656 15 15zm0 0" fill="#663325"/><path d="m271 376v60c0 8.402344-6.597656 15-15 15v-90c8.402344 0 15 6.597656 15 15zm0 0" fill="#3c1b13"/><path d="m210.246094 251.253906c-2.621094-7.859375-11.117188-12.105468-18.976563-9.484375-7.859375 2.621094-12.105469 11.117188-9.484375 18.976563 2.617188 7.859375 11.113282 12.105468 18.972656 9.484375 7.863282-2.617188 12.109376-11.113281 9.488282-18.976563zm0 0" fill="#663325"/><path d="m330.25 251.25c-2.621094-7.859375-11.117188-12.105469-18.976562-9.484375-7.859376 2.621094-12.105469 11.117187-9.488282 18.976563 2.621094 7.859374 11.117188 12.105468 18.976563 9.484374 7.859375-2.621093 12.109375-11.117187 9.488281-18.976562zm0 0" fill="#3c1b13"/><path d="m421 437h-330c-8.402344 0-15 6.597656-15 15v45c0 8.402344 6.597656 15 15 15h330c8.402344 0 15-6.597656 15-15v-45c0-8.402344-6.597656-15-15-15zm0 0" fill="#b4d2d7"/><path d="m436 452v45c0 8.402344-6.597656 15-15 15h-165v-75h165c8.402344 0 15 6.597656 15 15zm0 0" fill="#87a0af"/><path d="m256 318.699219c-27.898438 0-45 10.5-45 27.300781 0 24.902344 20.097656 45 45 45s45-20.097656 45-45c0-16.800781-17.101562-27.300781-45-27.300781zm0 0" fill="#663325"/><path d="m301 346c0 24.902344-20.097656 45-45 45v-72.300781c27.898438 0 45 10.5 45 27.300781zm0 0" fill="#3c1b13"/></svg>